<svg width="28" height="28" viewBox="0 0 28 28" fill="none" xmlns="http://www.w3.org/2000/svg">
<rect width="28" height="28" rx="14" fill="#1C4076"/>
<path d="M28 14C28 21.732 21.732 28 14 28C6.26801 28 0 21.732 0 14C0 6.26801 6.26801 0 14 0C21.732 0 28 6.26801 28 14ZM14.5018 10.3355C13.1401 10.9019 10.4186 12.0741 6.33728 13.8523C5.67454 14.1158 5.32737 14.3736 5.29577 14.6257C5.24235 15.0518 5.7759 15.2196 6.50246 15.448C6.60129 15.4791 6.70369 15.5113 6.80866 15.5454C7.52348 15.7778 8.48503 16.0496 8.98491 16.0604C9.43834 16.0702 9.94442 15.8833 10.5032 15.4996C14.3164 12.9256 16.2848 11.6245 16.4084 11.5965C16.4956 11.5767 16.6164 11.5518 16.6983 11.6245C16.7802 11.6973 16.7721 11.8351 16.7634 11.8721C16.7106 12.0974 14.6162 14.0445 13.5324 15.0521C13.1945 15.3663 12.9548 15.5891 12.9058 15.64C12.7961 15.754 12.6842 15.8618 12.5767 15.9654C11.9126 16.6056 11.4146 17.0857 12.6043 17.8696C13.176 18.2464 13.6335 18.5579 14.0899 18.8687C14.5883 19.2081 15.0854 19.5467 15.7286 19.9683C15.8925 20.0757 16.049 20.1873 16.2014 20.296C16.7815 20.7095 17.3026 21.081 17.9464 21.0218C18.3205 20.9873 18.7069 20.6356 18.9032 19.5865C19.367 17.107 20.2786 11.7349 20.4893 9.5212C20.5078 9.32725 20.4846 9.07903 20.4659 8.97007C20.4473 8.86111 20.4083 8.70586 20.2667 8.59094C20.0989 8.45483 19.84 8.42613 19.7242 8.42817C19.1976 8.43744 18.3897 8.71836 14.5018 10.3355Z" fill="white"/>
</svg>
