<svg width="28" height="28" viewBox="0 0 28 28" fill="none" xmlns="http://www.w3.org/2000/svg">
<rect width="28" height="28" rx="14" fill="white"/>
<path d="M20.1154 8.00894C19.0381 7.30651 18.2605 6.18262 18.018 4.87246C17.9656 4.5894 17.9368 4.29807 17.9368 4H14.4984L14.4929 17.78C14.435 19.3231 13.165 20.5616 11.608 20.5616C11.1241 20.5616 10.6685 20.4406 10.2673 20.2295C9.3473 19.7454 8.71771 18.781 8.71771 17.6713C8.71771 16.0775 10.0144 14.7808 11.608 14.7808C11.9055 14.7808 12.1909 14.8299 12.4609 14.9145V11.4042C12.1815 11.3662 11.8977 11.3424 11.608 11.3424C8.11829 11.3424 5.2793 14.1816 5.2793 17.6713C5.2793 19.8124 6.34905 21.7072 7.98108 22.853C9.00906 23.5747 10.2595 24 11.608 24C15.0978 24 17.9368 21.161 17.9368 17.6713V10.6837C19.2854 11.6516 20.9376 12.222 22.7205 12.222V8.7836C21.7601 8.7836 20.8656 8.49808 20.1154 8.00894Z" fill="#1C4076"/>
</svg>
