<svg width="28" height="28" viewBox="0 0 28 28" fill="none" xmlns="http://www.w3.org/2000/svg">
<rect width="28" height="28" rx="14" fill="white"/>
<path d="M23.5889 9.1913C23.3582 8.33455 22.6827 7.65904 21.826 7.42837C20.2607 7 13.9999 7 13.9999 7C13.9999 7 7.73906 7 6.17384 7.4119C5.33357 7.64256 4.64158 8.33455 4.41092 9.1913C3.99902 10.7565 3.99902 14.0023 3.99902 14.0023C3.99902 14.0023 3.99902 17.2645 4.41092 18.8132C4.64158 19.67 5.3171 20.3455 6.17384 20.5762C7.75553 21.0045 13.9999 21.0045 13.9999 21.0045C13.9999 21.0045 20.2607 21.0045 21.826 20.5926C22.6827 20.362 23.3582 19.6865 23.5889 18.8297C24.0008 17.2645 24.0008 14.0187 24.0008 14.0187C24.0008 14.0187 24.0173 10.7565 23.5889 9.1913Z" fill="#1C4076"/>
<path d="M12.0063 17.0009L17.2127 14.0023L12.0063 11.0037V17.0009Z" fill="white"/>
</svg>
